<svg xmlns="http://www.w3.org/2000/svg" viewBox="0 0 100 100">
  <path fill-rule="evenodd" fill="rgba(0, 0, 0, 0.025)" d="M11 18a7 7 0 1 0 0-14 7 7 0 0 0 0 14Zm48 25a7 7 0 1 0 0-14 7 7 0 0 0 0 14Zm-43-7a3 3 0 1 0 0-6 3 3 0 0 0 0 6Zm63 31a3 3 0 1 0 0-6 3 3 0 0 0 0 6ZM34 90a3 3 0 1 0 0-6 3 3 0 0 0 0 6Zm56-76a3 3 0 1 0 0-6 3 3 0 0 0 0 6ZM12 86a4 4 0 1 0 0-8 4 4 0 0 0 0 8Zm28-65a4 4 0 1 0 0-8 4 4 0 0 0 0 8Zm23-11a5 5 0 1 0 0-10 5 5 0 0 0 0 10Zm-6 60a4 4 0 1 0 0-8 4 4 0 0 0 0 8Zm29 22a5 5 0 1 0 0-10 5 5 0 0 0 0 10ZM32 63a5 5 0 1 0 0-10 5 5 0 0 0 0 10Zm57-13a5 5 0 1 0 0-10 5 5 0 0 0 0 10Zm-9-21a2 2 0 1 0 0-4 2 2 0 0 0 0 4ZM60 91a2 2 0 1 0 0-4 2 2 0 0 0 0 4ZM35 41a2 2 0 1 0 0-4 2 2 0 0 0 0 4ZM12 60a2 2 0 1 0 0-4 2 2 0 0 0 0 4Z"/>
</svg>
