<svg xmlns="http://www.w3.org/2000/svg" xmlns:xlink="http://www.w3.org/1999/xlink" width="500" zoomAndPan="magnify" viewBox="0 0 375 374.999991" height="500" preserveAspectRatio="xMidYMid meet" version="1.0"><defs><g/><clipPath id="151c1b6edf"><path d="M 46.785156 153 L 199.042969 153 L 199.042969 214.265625 L 46.785156 214.265625 Z M 46.785156 153 " clip-rule="nonzero"/></clipPath><clipPath id="10a074e9f6"><path d="M 194.503906 153 L 327.980469 153 L 327.980469 214.5 L 194.503906 214.5 Z M 194.503906 153 " clip-rule="nonzero"/></clipPath></defs><g clip-path="url(#151c1b6edf)"><path fill="#0066ff" d="M 46.785156 153 L 199.128906 153 L 199.128906 214.523438 L 46.785156 214.523438 Z M 46.785156 153 " fill-opacity="1" fill-rule="nonzero"/></g><g clip-path="url(#10a074e9f6)"><path stroke-linecap="butt" transform="matrix(0.748751, 0, 0, 0.753013, 194.501975, 153.0015)" fill="none" stroke-linejoin="miter" d="M 0.00257939 -0.0019914 L 178.268175 -0.0019914 L 178.268175 81.669899 L 0.00257939 81.669899 L 0.00257939 -0.0019914 " stroke="#0066ff" stroke-width="4" stroke-opacity="1" stroke-miterlimit="4"/></g><g fill="#ffffff" fill-opacity="1"><g transform="translate(55.445314, 202.548399)"><g><path d="M 2.492188 -2.4375 C 7.632812 0.210938 12.347656 0.476562 14.46875 0.316406 C 21.570312 -0.0546875 25.914062 -4.875 25.914062 -11.183594 C 25.914062 -17.222656 20.828125 -20.613281 14.945312 -22.789062 C 12.773438 -23.53125 10.917969 -24.484375 10.703125 -26.601562 C 10.546875 -28.722656 11.765625 -30.683594 14.46875 -30.84375 C 15.632812 -30.894531 18.019531 -30.949219 22.203125 -29.253906 L 23.160156 -36.566406 C 18.285156 -38.261719 15.6875 -38.261719 13.726562 -38.15625 C 7.417969 -37.839844 3.019531 -32.964844 3.019531 -26.601562 C 3.019531 -20.242188 8.320312 -17.222656 14.253906 -15.050781 C 16.375 -14.308594 18.019531 -13.355469 18.175781 -11.183594 C 18.390625 -9.113281 16.480469 -7.523438 14.253906 -7.367188 C 12.507812 -7.207031 7.789062 -7.3125 3.445312 -10.386719 Z M 2.492188 -2.4375 "/></g></g></g><g fill="#ffffff" fill-opacity="1"><g transform="translate(83.478198, 202.548399)"><g><path d="M 4.238281 -37.890625 L 4.238281 0 L 23.847656 0 L 23.847656 -7.578125 L 11.816406 -7.578125 L 11.816406 -37.890625 Z M 4.238281 -37.890625 "/></g></g></g><g fill="#ffffff" fill-opacity="1"><g transform="translate(109.603364, 202.548399)"><g><path d="M 11.816406 0 L 11.816406 -37.890625 L 4.238281 -37.890625 L 4.238281 0 Z M 11.816406 0 "/></g></g></g><g fill="#ffffff" fill-opacity="1"><g transform="translate(125.713005, 202.548399)"><g><path d="M 15.527344 -37.890625 L 4.238281 -37.890625 L 4.238281 0 L 15.527344 0 C 40.753906 0 40.753906 -37.890625 15.527344 -37.890625 Z M 15.527344 -30.3125 C 30.261719 -30.3125 30.261719 -7.578125 15.527344 -7.578125 L 11.816406 -7.578125 L 11.816406 -30.3125 Z M 15.527344 -30.3125 "/></g></g></g><g fill="#ffffff" fill-opacity="1"><g transform="translate(163.019529, 202.548399)"><g><path d="M 23.847656 0 L 23.847656 -7.578125 L 11.816406 -7.578125 L 11.816406 -15.15625 L 21.78125 -15.15625 L 21.78125 -22.734375 L 11.816406 -22.734375 L 11.816406 -30.3125 L 23.210938 -30.3125 L 23.210938 -37.890625 L 4.238281 -37.890625 L 4.238281 0 Z M 23.847656 0 "/></g></g></g><g fill="#0066ff" fill-opacity="1"><g transform="translate(205.586739, 203.298399)"><g><path d="M 4.238281 -37.890625 L 4.238281 0 L 23.847656 0 L 23.847656 -7.578125 L 11.816406 -7.578125 L 11.816406 -37.890625 Z M 4.238281 -37.890625 "/></g></g></g><g fill="#0066ff" fill-opacity="1"><g transform="translate(231.711905, 203.298399)"><g><path d="M 11.816406 0 L 11.816406 -37.890625 L 4.238281 -37.890625 L 4.238281 0 Z M 11.816406 0 "/></g></g></g><g fill="#0066ff" fill-opacity="1"><g transform="translate(247.821546, 203.298399)"><g><path d="M 11.816406 -20.613281 L 31.003906 0.796875 L 33.015625 0.796875 L 33.015625 -37.839844 L 25.382812 -37.839844 L 25.382812 -16.429688 L 6.253906 -38.6875 L 4.238281 -38.6875 L 4.238281 0 L 11.816406 0 Z M 11.816406 -20.613281 "/></g></g></g><g fill="#0066ff" fill-opacity="1"><g transform="translate(285.12807, 203.298399)"><g><path d="M 4.238281 0 L 11.816406 0 L 11.816406 -14.839844 L 21.886719 0 L 31.265625 0 L 17.914062 -19.183594 L 30.207031 -37.890625 L 21.355469 -37.890625 L 11.816406 -22.789062 L 11.816406 -37.890625 L 4.238281 -37.890625 Z M 4.238281 0 "/></g></g></g></svg>